<svg width="186" height="95" viewBox="0 0 186 95" fill="none" xmlns="http://www.w3.org/2000/svg">
<g style="mix-blend-mode:screen">
<path fill-rule="evenodd" clip-rule="evenodd" d="M0.858398 0H186V95H0.858398V0Z" fill="#DA1E26"/>
</g>
<path d="M32.4993 70.861C34.4913 70.861 36.2413 70.481 37.7523 69.723C39.2623 68.964 40.5753 67.903 41.6923 66.536L42.1523 70.211H50.3923V20.267H41.2323V38.183C40.1373 36.969 38.8843 36.031 37.4723 35.37C36.0613 34.71 34.4253 34.378 32.5643 34.378C30.3543 34.378 28.3893 34.812 26.6713 35.679C24.9533 36.546 23.4923 37.771 22.2883 39.353C21.0853 40.936 20.1713 42.833 19.5473 45.043C18.9233 47.255 18.6113 49.693 18.6113 52.36V53.042C18.6113 55.6 18.9293 57.969 19.5633 60.147C20.1983 62.326 21.1174 64.207 22.3214 65.789C23.4706 67.3435 24.958 68.6165 26.6713 69.512C28.3893 70.412 30.3313 70.861 32.4993 70.861ZM34.8293 63.513C33.5393 63.513 32.4443 63.242 31.5473 62.7C30.6493 62.158 29.9173 61.41 29.3473 60.456C28.7773 59.524 28.3673 58.424 28.1163 57.156C27.8643 55.888 27.7383 54.516 27.7383 53.042V52.36C27.7383 50.886 27.8703 49.504 28.1323 48.214C28.3953 46.924 28.8113 45.791 29.3803 44.816C29.9209 43.8911 30.6823 43.1146 31.5963 42.556C32.5043 42.003 33.6043 41.727 34.8963 41.727C36.4493 41.727 37.7413 42.057 38.7693 42.719C39.7993 43.379 40.6193 44.307 41.2323 45.499V59.74C40.6193 60.91 39.7923 61.832 38.7533 62.504C37.7133 63.176 36.4063 63.512 34.8303 63.512L34.8293 63.513ZM77.1493 70.861C80.5853 70.861 83.5623 70.2 86.0793 68.878C88.5963 67.555 90.4343 66.081 91.5953 64.455L87.0313 59.578C85.9813 60.922 84.6123 61.93 82.9273 62.602C81.2679 63.269 79.4958 63.6112 77.7073 63.61C76.4373 63.61 75.2673 63.415 74.1943 63.025C73.1493 62.6504 72.1814 62.0882 71.3383 61.366C70.5609 60.7114 69.9051 59.9246 69.4013 59.042C68.9193 58.185 68.5253 57.052 68.2193 55.644V55.546H92.3173V51.71C92.3173 49.13 91.9563 46.773 91.2333 44.638C90.5113 42.503 89.4613 40.677 88.0823 39.159C86.6813 37.642 84.9793 36.466 82.9763 35.631C80.9743 34.797 78.6923 34.379 76.1313 34.379C73.6583 34.379 71.3713 34.824 69.2693 35.713C67.1693 36.601 65.3523 37.848 63.8193 39.452C62.2873 41.056 61.0953 42.969 60.2413 45.191C59.3873 47.413 58.9613 49.868 58.9613 52.556V53.856C58.9613 56.219 59.3933 58.436 60.2573 60.506C61.0968 62.5393 62.3555 64.3728 63.9513 65.887C65.5493 67.427 67.4643 68.64 69.6964 69.529C71.9294 70.418 74.4133 70.861 77.1493 70.861ZM83.3543 49.303H68.3833C68.6023 48.154 68.9303 47.113 69.3683 46.182C69.7765 45.2933 70.3316 44.4799 71.0103 43.776C71.637 43.1093 72.3977 42.5827 73.2423 42.231C74.0963 41.873 75.0373 41.695 76.0653 41.695C77.2253 41.695 78.2493 41.873 79.1353 42.231C80.0223 42.589 80.7713 43.071 81.3853 43.678C82.0039 44.3156 82.4941 45.0663 82.8293 45.889C83.1793 46.734 83.3543 47.634 83.3543 48.588V49.303ZM120.124 70.211L133.618 35.029H124.098L116.316 59.839L115.824 62.309L115.331 59.839L107.518 35.029H97.9973L111.556 70.211H120.125H120.124ZM170.783 77.267V70.21H140.84V77.266H170.782L170.783 77.267Z" fill="white"/>
</svg>
